#!OML:ASF H:\LiuWeirdWalks\Patient Classification 1\Patient 1\Session 1\male.ASF
:FULLY-SPECIFIED
:DEGREES
1339
root 1.6478 18.0062 36.0166 0.912253 6.95278 -0.0971636
lowerback 7.53994 -3.05146 -6.11802
upperback -0.960021 -4.34285 6.54547
thorax -4.27728 -1.94061 10.9546
lowerneck -18.9576 3.93722 7.1368
upperneck 17.7489 5.86771 -11.2234
head 9.27877 2.02704 -4.26868
rclavicle -1.54058e-014 -2.22639e-014
rhumerus -35.145 -18.1438 -42.1934
rradius 30.8121
rwrist -7.13028
rhand -20.9608 0.914454
rfingers 7.12502
rthumb 5.41222 -28.9964
lclavicle -1.54058e-014 -2.22639e-014
lhumerus -50.35 31.1613 46.9038
lradius 37.8875
lwrist 4.99097
lhand -17.273 3.10235
lfingers 7.12502
lthumb 8.97192 32.8916
rfemur -9.33361 -3.6836 14.0974
rtibia 29.022
rfoot -9.09461 -21.9861
rtoes -3.04913
lfemur -7.18073 -4.18346 -14.0542
ltibia 23.2865
lfoot -7.2182 15.3374
ltoes -9.85647
1340
root 1.67544 18.0045 36.0337 0.816923 6.76737 0.109023
lowerback 7.45815 -3.00339 -6.36355
upperback -0.898299 -4.30102 6.52101
thorax -4.15969 -1.92332 11.0588
lowerneck -18.9848 3.95878 7.14578
upperneck 17.7324 5.89277 -11.2256
head 9.281 2.03859 -4.26691
rclavicle -4.27387e-015 -1.90833e-014
rhumerus -35.1394 -17.9335 -42.8674
rradius 30.7628
rwrist -7.48422
rhand -20.986 0.863007
rfingers 7.12502
rthumb 5.38788 -29.0485
lclavicle -4.27387e-015 -1.90833e-014
lhumerus -50.1516 30.7063 47.7099
lradius 37.4977
lwrist 5.23139
lhand -16.986 3.17874
lfingers 7.12502
lthumb 9.24889 32.9559
rfemur -9.15894 -3.77475 13.7311
rtibia 29.029
rfoot -9.16833 -21.7073
rtoes -3.09974
lfemur -6.80584 -3.86129 -14.3533
ltibia 23.0578
lfoot -7.24798 15.1027
ltoes -10.1046
1341
root 1.70192 18.0042 36.0508 0.745394 6.58291 0.339785
lowerback 7.33757 -2.95067 -6.58686
upperback -0.822225 -4.25015 6.46055
thorax -4.01165 -1.90498 11.1047
lowerneck -19.0773 3.98183 7.15698
upperneck 17.731 5.91175 -11.204
head 9.2989 2.04768 -4.25806
rclavicle -2.01766e-014 -7.95139e-015
rhumerus -35.1688 -17.8121 -43.5774
rradius 30.7109
rwrist -7.79438
rhand -20.9795 0.841373
rfingers 7.12502
rthumb 5.39413 -29.07
lclavicle -2.01766e-014 -7.95139e-015
lhumerus -49.8868 30.2198 48.5625
lradius 37.1108
lwrist 5.43035
lhand -16.6518 3.1747
lfingers 7.12502
lthumb 9.57136 32.9373
rfemur -8.99331 -3.85071 13.3426
rtibia 29.0091
rfoot -9.24243 -21.4318
rtoes -3.13438
lfemur -6.44536 -3.5256 -14.6846
ltibia 22.8065
lfoot -7.26849 14.9193
ltoes -10.2724
1342
root 1.72713 18.0054 36.0672 0.701465 6.40541 0.548975
lowerback 7.18231 -2.91104 -6.77378
upperback -0.734995 -4.21162 6.39049
thorax -3.83277 -1.89632 11.1157
lowerneck -19.2278 4.02335 7.19377
upperneck 17.7441 5.9462 -11.1782
head 9.33456 2.06417 -4.24993
rclavicle 3.27001e-014 -1.74931e-014
rhumerus -35.1765 -17.7074 -44.3656
rradius 30.6522
rwrist -8.06502
rhand -20.9405 0.780547
rfingers 7.12502
rthumb 5.43184 -29.1298
lclavicle 3.27001e-014 -1.74931e-014
lhumerus -49.613 29.7429 49.4232
lradius 36.7543
lwrist 5.57635
lhand -16.2702 3.15612
lfingers 7.12502
lthumb 9.93953 32.9015
rfemur -8.84983 -3.90476 12.9877
rtibia 28.9605
rfoot -9.30538 -21.1771
rtoes -3.16083
lfemur -6.11773 -3.20588 -14.9957
ltibia 22.5422
lfoot -7.27711 14.7955
ltoes -10.3741
1343
root 1.75146 18.0079 36.0824 0.701106 6.24475 0.712162
lowerback 6.983 -2.8874 -6.89498
upperback -0.650131 -4.18567 6.3221
thorax -3.63314 -1.89671 11.0871
lowerneck -19.422 4.07302 7.2358
upperneck 17.7705 5.98688 -11.1427
head 9.38324 2.08338 -4.23845
rclavicle 9.40251e-014 -4.45278e-014
rhumerus -35.1761 -17.6066 -45.2161
rradius 30.5989
rwrist -8.33381
rhand -20.8918 0.727931
rfingers 7.12502
rthumb 5.47882 -29.1812
lclavicle 9.40251e-014 -4.45278e-014
lhumerus -49.3325 29.2647 50.3
lradius 36.4282
lwrist 5.66848
lhand -15.8541 3.07262
lfingers 7.12502
lthumb 10.3409 32.7984
rfemur -8.75123 -3.93798 12.6951
rtibia 28.8878
rfoot -9.3557 -20.957
rtoes -3.17233
lfemur -5.85238 -2.9336 -15.2569
ltibia 22.2756
lfoot -7.27463 14.7283
ltoes -10.3989
1344
root 1.77527 18.0117 36.0965 0.743086 6.11149 0.850534
lowerback 6.75711 -2.88059 -6.96436
upperback -0.583094 -4.1759 6.24634
thorax -3.43784 -1.90537 11.0197
lowerneck -19.6128 4.12469 7.28549
upperneck 17.7919 6.02625 -11.1018
head 9.42943 2.10331 -4.22634
rclavicle 2.52457e-014 -2.38542e-014
rhumerus -35.1946 -17.4813 -46.123
rradius 30.5623
rwrist -8.56497
rhand -20.8231 0.642523
rfingers 7.12502
rthumb 5.54513 -29.2649
lclavicle 2.52457e-014 -2.38542e-014
lhumerus -49.0634 28.7673 51.1825
lradius 36.1398
lwrist 5.71396
lhand -15.3983 3.04354
lfingers 7.12502
lthumb 10.7806 32.7469
rfemur -8.69213 -3.95409 12.4407
rtibia 28.7909
rfoot -9.38514 -20.7787
rtoes -3.17821
lfemur -5.6536 -2.73623 -15.4925
ltibia 22.0188
lfoot -7.25934 14.7156
ltoes -10.369
1345
root 1.79893 18.0166 36.1098 0.820462 6.00192 0.957545
lowerback 6.50529 -2.89494 -7.00491
upperback -0.548232 -4.18981 6.1798
thorax -3.2578 -1.9242 10.947
lowerneck -19.7105 4.16895 7.32641
upperneck 17.7831 6.05923 -11.0576
head 9.44708 2.12342 -4.21207
rclavicle 6.55989e-015 1.27222e-014
rhumerus -35.2325 -17.3018 -47.062
rradius 30.518
rwrist -8.7411
rhand -20.7272 0.550947
rfingers 7.12502
rthumb 5.63777 -29.3541
lclavicle 6.55989e-015 1.27222e-014
lhumerus -48.8482 28.2312 52.0706
lradius 35.8773
lwrist 5.75248
lhand -14.9528 3.04699
lfingers 7.12502
lthumb 11.2102 32.7275
rfemur -8.66644 -3.94933 12.2311
rtibia 28.6701
rfoot -9.39141 -20.6468
rtoes -3.17914
lfemur -5.51647 -2.62045 -15.6951
ltibia 21.7782
lfoot -7.24167 14.7535
ltoes -10.3039
1346
root 1.82345 18.0219 36.1235 0.920511 5.92138 1.04624
lowerback 6.22804 -2.93109 -7.01662
upperback -0.543212 -4.22875 6.11794
thorax -3.09085 -1.95406 10.8637
lowerneck -19.7065 4.20861 7.37261
upperneck 17.7266 6.08966 -11.0315
head 9.43028 2.14469 -4.20479
rclavicle 4.02539e-014 -1.59028e-014
rhumerus -35.2957 -17.0594 -48.0238
rradius 30.4698
rwrist -8.87109
rhand -20.6122 0.490043
rfingers 7.12502
rthumb 5.74875 -29.412
lclavicle 4.02539e-014 -1.59028e-014
lhumerus -48.694 27.6662 52.9614
lradius 35.6363
lwrist 5.76361
lhand -14.5383 3.01131
lfingers 7.12502
lthumb 11.61 32.6697
rfemur -8.65094 -3.95325 12.0413
rtibia 28.5286
rfoot -9.38866 -20.537
rtoes -3.17621
lfemur -5.41748 -2.57175 -15.8827
ltibia 21.5517
lfoot -7.22918 14.8173
ltoes -10.2105
1347
root 1.84871 18.0273 36.1377 1.03067 5.86626 1.11419
lowerback 5.94378 -2.98455 -6.9958
upperback -0.555599 -4.28758 6.06192
thorax -2.93565 -1.99297 10.7689
lowerneck -19.6646 4.24096 7.39314
upperneck 17.6616 6.11618 -10.9931
head 9.40198 2.16496 -4.18939
rclavicle -1.51076e-014 1.59028e-015
rhumerus -35.3668 -16.7858 -49.0043
rradius 30.4166
rwrist -8.91552
rhand -20.454 0.406197
rfingers 7.12502
rthumb 5.90152 -29.4916
lclavicle -1.51076e-014 1.59028e-015
lhumerus -48.5735 27.0931 53.8656
lradius 35.4078
lwrist 5.76245
lhand -14.1326 3.00488
lfingers 7.12502
lthumb 12.0012 32.6408
rfemur -8.63283 -3.95639 11.8751
rtibia 28.368
rfoot -9.3762 -20.4587
rtoes -3.16192
lfemur -5.34345 -2.5743 -16.0499
ltibia 21.3412
lfoot -7.22887 14.8932
ltoes -10.1087
1348
root 1.87439 18.0324 36.1519 1.14082 5.82664 1.16637
lowerback 5.66493 -3.0549 -6.96801
upperback -0.575111 -4.36842 6.01889
thorax -2.78556 -2.04233 10.6863
lowerneck -19.5928 4.27843 7.40791
upperneck 17.5804 6.15464 -10.9668
head 9.36422 2.19026 -4.17536
rclavicle -3.88624e-014 2.54444e-014
rhumerus -35.4012 -16.4765 -50.0132
rradius 30.3271
rwrist -8.93326
rhand -20.2747 0.326433
rfingers 7.12502
rthumb 6.07459 -29.5665
lclavicle -3.88624e-014 2.54444e-014
lhumerus -48.5009 26.5611 54.7678
lradius 35.202
lwrist 5.70809
lhand -13.7399 2.98557
lfingers 7.12502
lthumb 12.3799 32.599
rfemur -8.60433 -3.94441 11.7282
rtibia 28.1927
rfoot -9.36122 -20.4133
rtoes -3.13122
lfemur -5.28105 -2.60073 -16.1989
ltibia 21.145
lfoot -7.24224 14.9633
ltoes -10.0187
1349
root 1.90004 18.0369 36.166 1.242 5.79615 1.21015
lowerback 5.40946 -3.12202 -6.91006
upperback -0.588652 -4.44399 5.97369
thorax -2.64622 -2.08895 10.5844
lowerneck -19.5981 4.31085 7.3869
upperneck 17.5406 6.19118 -10.9189
head 9.35269 2.21142 -4.14852
rclavicle 2.08724e-015 4.29375e-014
rhumerus -35.4226 -16.1751 -51.0362
rradius 30.2237
rwrist -8.92905
rhand -20.0696 0.24434
rfingers 7.12502
rthumb 6.27266 -29.6428
lclavicle 2.08724e-015 4.29375e-014
lhumerus -48.4094 26.067 55.6896
lradius 35.0028
lwrist 5.57902
lhand -13.3579 2.87372
lfingers 7.12502
lthumb 12.7482 32.4645
rfemur -8.56 -3.905 11.5952
rtibia 28.0099
rfoot -9.34896 -20.4091
rtoes -3.09378
lfemur -5.21996 -2.6227 -16.3336
ltibia 20.9633
lfoot -7.26733 15.0088
ltoes -9.93869
1350
root 1.92319 18.0405 36.1788 1.30801 5.79476 1.25338
lowerback 5.23027 -3.19472 -6.883
upperback -0.59072 -4.53268 5.9367
thorax -2.53203 -2.14063 10.516
lowerneck -19.6793 4.35498 7.36382
upperneck 17.539 6.24489 -10.8757
head 9.37 2.23698 -4.1209
rclavicle 4.87022e-015 6.36111e-015
rhumerus -35.4022 -15.8877 -52.0722
rradius 30.0887
rwrist -8.83101
rhand -19.7961 0.145885
rfingers 7.12502
rthumb 6.53663 -29.7332
lclavicle 4.87022e-015 6.36111e-015
lhumerus -48.3019 25.567 56.6649
lradius 34.8399
lwrist 5.50063
lhand -12.9957 2.76333
lfingers 7.12502
lthumb 13.0974 32.3321
rfemur -8.47445 -3.83656 11.475
rtibia 27.8273
rfoot -9.34133 -20.4648
rtoes -3.04533
lfemur -5.14195 -2.6149 -16.4529
ltibia 20.7958
lfoot -7.30357 14.984
ltoes -9.90141
1351
root 1.94598 18.0434 36.1911 1.37615 5.77321 1.29798
lowerback 5.06572 -3.26295 -6.87242
upperback -0.597713 -4.6169 5.9084
thorax -2.43056 -2.18885 10.4679
lowerneck -19.7855 4.40377 7.33817
upperneck 17.5699 6.31067 -10.8464
head 9.40487 2.26514 -4.09651
rclavicle 9.6013e-014 -1.59028e-014
rhumerus -35.3649 -15.5596 -53.1173
rradius 29.9392
rwrist -8.75728
rhand -19.4836 0.0459757
rfingers 7.12502
rthumb 6.83833 -29.8236
lclavicle 9.6013e-014 -1.59028e-014
lhumerus -48.2084 25.0813 57.669
lradius 34.7083
lwrist 5.44467
lhand -12.6516 2.6128
lfingers 7.12502
lthumb 13.429 32.1599
rfemur -8.40122 -3.73453 11.3602
rtibia 27.653
rfoot -9.33423 -20.5437
rtoes -2.98938
lfemur -5.07214 -2.56311 -16.5659
ltibia 20.6432
lfoot -7.35517 14.9272
ltoes -9.88099
